<?xml version="1.0" encoding="UTF-8"?>
<svg width="64px" height="17px" viewBox="0 0 64 17" version="1.1" xmlns="http://www.w3.org/2000/svg" xmlns:xlink="http://www.w3.org/1999/xlink">
    <!-- Generator: Sketch 59.1 (86144) - https://sketch.com -->
    <title>drag</title>
    <desc>Created with Sketch.</desc>
    <defs>
        <path d="M5.328125,11.5058594 C5.91992483,11.5058594 6.4062481,11.4443366 6.78710938,11.3212891 C7.46680027,11.0927723 8.02343533,10.6533236 8.45703125,10.0029297 C8.8027361,9.48144271 9.05175705,8.81348063 9.20410156,7.99902344 C9.29199263,7.51269288 9.3359375,7.06152552 9.3359375,6.64550781 C9.3359375,5.04589044 9.01806958,3.80371536 8.38232422,2.91894531 C7.74657885,2.03417526 6.72266331,1.59179688 5.31054688,1.59179688 L2.20800781,1.59179688 L2.20800781,11.5058594 L5.328125,11.5058594 Z M0.450195312,0.0888671875 L5.6796875,0.0888671875 C7.455087,0.0888671875 8.83202636,0.718743701 9.81054688,1.97851562 C10.6835981,3.11524006 11.1201172,4.57128019 11.1201172,6.34667969 C11.1201172,7.71778029 10.8623073,8.95702571 10.3466797,10.0644531 C9.43847202,12.0214942 7.8769642,13 5.66210938,13 L0.450195312,13 L0.450195312,0.0888671875 Z M13.203125,3.58691406 L14.7060547,3.58691406 L14.7060547,5.21289062 C14.8291022,4.89648279 15.130857,4.51123274 15.6113281,4.05712891 C16.0917993,3.60302507 16.6455047,3.37597656 17.2724609,3.37597656 L17.421875,3.38476562 L17.421875,3.38476562 L17.7822266,3.41992188 L17.7822266,3.41992188 L17.7822266,5.08984375 C17.6884761,5.07226554 17.6020512,5.0605469 17.5229492,5.0546875 C17.4438473,5.0488281 17.3574223,5.04589844 17.2636719,5.04589844 C16.4667929,5.04589844 15.8544943,5.30224353 15.4267578,5.81494141 C14.9990213,6.32763928 14.7851562,6.91796541 14.7851562,7.5859375 L14.7851562,13 L13.203125,13 L13.203125,3.58691406 Z M20.3662109,10.4951172 C20.3662109,10.9521507 20.5332015,11.3124987 20.8671875,11.5761719 C21.2011735,11.8398451 21.5966774,11.9716797 22.0537109,11.9716797 C22.6103543,11.9716797 23.1494115,11.8427747 23.6708984,11.5849609 C24.5498091,11.1572244 24.9892578,10.4570361 24.9892578,9.484375 L24.9892578,8.20996094 C24.7958975,8.33300843 24.5468765,8.43554646 24.2421875,8.51757812 C23.9374985,8.59960979 23.6386733,8.65820295 23.3457031,8.69335938 L22.3876953,8.81640625 C21.8134737,8.89257851 21.3828139,9.01269449 21.0957031,9.17675781 C20.6093726,9.45214981 20.3662109,9.89159854 20.3662109,10.4951172 Z M32.4863281,3.41992188 C33.2246131,3.41992188 33.8691379,3.60156068 34.4199219,3.96484375 C34.7187515,4.1699229 35.0234359,4.46874804 35.3339844,4.86132812 L35.3339844,3.67480469 L36.7929688,3.67480469 L36.7929688,12.2353516 C36.7929688,13.43067 36.6171893,14.37402 36.265625,15.0654297 C35.6093717,16.3427798 34.3701263,16.9814453 32.5478516,16.9814453 C31.5341746,16.9814453 30.6816441,16.7543968 29.9902344,16.300293 C29.2988247,15.8461891 28.9121098,15.135747 28.8300781,14.1689453 L30.4384766,14.1689453 C30.5146488,14.5908224 30.666991,14.9160145 30.8955078,15.1445312 C31.2529315,15.4960955 31.8154258,15.671875 32.5830078,15.671875 C33.7959045,15.671875 34.5898419,15.2441449 34.9648438,14.3886719 C35.1875011,13.8847631 35.2900392,12.985358 35.2724609,11.6904297 C34.9560531,12.1709008 34.5751975,12.5283191 34.1298828,12.7626953 C33.6845681,12.9970715 33.0957068,13.1142578 32.3632812,13.1142578 C31.3437449,13.1142578 30.451664,12.752445 29.6870117,12.0288086 C28.9223595,11.3051722 28.5400391,10.1084068 28.5400391,8.43847656 C28.5400391,6.86229681 28.9252891,5.63184036 29.6958008,4.74707031 C30.4663124,3.86230026 31.3964789,3.41992188 32.4863281,3.41992188 Z M22.8447266,3.35839844 C23.952154,3.35839844 24.851559,3.56933383 25.5429688,3.99121094 C26.2285191,4.41308805 26.5712891,5.06933148 26.5712891,5.95996094 L26.5712891,11.3828125 C26.5712891,11.5468758 26.6049801,11.6787104 26.6723633,11.7783203 C26.7397464,11.8779302 26.8818349,11.9277344 27.0986328,11.9277344 C27.1689457,11.9277344 27.2480464,11.9233399 27.3359375,11.9145508 C27.4238286,11.9057617 27.5175776,11.8925782 27.6171875,11.875 L27.6171875,13.0439453 L27.3499997,13.1156642 C27.2304686,13.1451954 27.1320316,13.1652343 27.0546875,13.1757812 C26.9257806,13.1933595 26.7500011,13.2021484 26.5273438,13.2021484 C25.9824192,13.2021484 25.5869153,13.008791 25.3408203,12.6220703 C25.2119134,12.4169912 25.121094,12.126955 25.0683594,11.7519531 C24.7460921,12.1738302 24.2832061,12.5400375 23.6796875,12.8505859 C23.0761689,13.1611344 22.4111364,13.3164062 21.6845703,13.3164062 C20.8115191,13.3164062 20.0981473,13.0512722 19.5444336,12.5209961 C18.9907199,11.99072 18.7138672,11.3271524 18.7138672,10.5302734 C18.7138672,9.6572222 18.9863254,8.98047115 19.53125,8.5 C20.0761746,8.01952885 20.7910112,7.72363337 21.6757812,7.61230469 L24.1982422,7.29589844 C24.5615253,7.2490232 24.8046869,7.09668098 24.9277344,6.83886719 C24.9980472,6.69824148 25.0332031,6.49609507 25.0332031,6.23242188 C25.0332031,5.69335668 24.8413105,5.30224731 24.4575195,5.05908203 C24.0737285,4.81591675 23.5244176,4.69433594 22.8095703,4.69433594 C21.9833943,4.69433594 21.3974627,4.91698996 21.0517578,5.36230469 C20.8583975,5.60839967 20.7324222,5.97460694 20.6738281,6.4609375 L19.1972656,6.4609375 C19.2265626,5.30077545 19.6030237,4.49365461 20.3266602,4.03955078 C21.0502966,3.58544695 21.8896437,3.35839844 22.8447266,3.35839844 Z M32.7763672,4.81738281 C31.6630804,4.81738281 30.9013692,5.33886197 30.4912109,6.38183594 C30.274413,6.93847935 30.1660156,7.66796424 30.1660156,8.5703125 C30.1660156,9.63086468 30.3813455,10.4379855 30.8120117,10.9916992 C31.2426779,11.5454129 31.8212854,11.8222656 32.5478516,11.8222656 C33.684576,11.8222656 34.4843727,11.3095754 34.9472656,10.2841797 C35.2050794,9.70409866 35.3339844,9.02734762 35.3339844,8.25390625 C35.3339844,7.08788479 35.0937524,6.22363563 34.6132812,5.66113281 C34.1328101,5.09863 33.5205115,4.81738281 32.7763672,4.81738281 Z" id="path-1"></path>
    </defs>
    <g id="Page-1" stroke="none" stroke-width="1" fill="none" fill-rule="evenodd">
        <g id="drag">
            <g id="Drag_" transform="translate(26.961000, 0.000000)" fill-rule="nonzero">
                <g id="Drag">
                    <use fill="#000000" xlink:href="#path-1"></use>
                    <use fill="#E90000" xlink:href="#path-1"></use>
                </g>
            </g>
            <polyline id="Path_13" stroke="#E90000" stroke-width="0.8" points="13.565 2.5 18.703 7.638 13.565 12.776"></polyline>
            <polyline id="Path_14" stroke="#E90000" stroke-width="0.8" transform="translate(3.134000, 7.637000) rotate(180.000000) translate(-3.134000, -7.637000) " points="0.565 2.499 5.703 7.637 0.565 12.775"></polyline>
        </g>
    </g>
</svg>